<?xml version="1.0" encoding="utf-8"?>
<!-- Generator: Adobe Illustrator 21.0.2, SVG Export Plug-In . SVG Version: 6.00 Build 0)  -->
<svg version="1.1" id="Layer_1" xmlns="http://www.w3.org/2000/svg" xmlns:xlink="http://www.w3.org/1999/xlink" x="0px" y="0px"
	 viewBox="0 0 554.5 100" style="enable-background:new 0 0 554.5 100;" xml:space="preserve">
<style type="text/css">
	.st0{fill:none;}
	.st1{fill:#DDBE1F;}
	.st2{font-family:'AlfaSlabOne-Regular';}
	.st3{font-size:74.9363px;}
	.st4{letter-spacing:4;}
	.st5{letter-spacing:8;}
	.st6{letter-spacing:1;}
	.st7{clip-path:url(#SVGID_2_);}
	.st8{clip-path:url(#SVGID_4_);}
	.st9{clip-path:url(#SVGID_6_);}
	.st10{clip-path:url(#SVGID_10_);fill:#A57636;}
	.st11{clip-path:url(#SVGID_10_);fill:none;stroke:#88633F;stroke-width:0.2934;stroke-miterlimit:10;}
	.st12{clip-path:url(#SVGID_10_);fill:#F188B8;}
	.st13{clip-path:url(#SVGID_10_);fill:none;stroke:#CB6997;stroke-width:0.2934;stroke-miterlimit:10;}
	.st14{clip-path:url(#SVGID_10_);fill:none;stroke:#674A1A;stroke-width:0.1504;stroke-miterlimit:10;}
	.st15{clip-path:url(#SVGID_10_);fill:none;stroke:#674A1A;stroke-width:0.1159;stroke-miterlimit:10;}
	.st16{clip-path:url(#SVGID_10_);fill:none;stroke:#674A1A;stroke-width:8.082973e-02;stroke-miterlimit:10;}
	.st17{clip-path:url(#SVGID_10_);fill:none;stroke:#674A1A;stroke-width:0.135;stroke-miterlimit:10;}
	.st18{clip-path:url(#SVGID_10_);fill:none;stroke:#674A1A;stroke-width:8.376366e-02;stroke-miterlimit:10;}
	.st19{clip-path:url(#SVGID_10_);fill:none;stroke:#674A1A;stroke-width:0.108;stroke-miterlimit:10;}
	.st20{clip-path:url(#SVGID_10_);fill:none;stroke:#674A1A;stroke-width:0.103;stroke-miterlimit:10;}
	.st21{clip-path:url(#SVGID_10_);fill:none;stroke:#674A1A;stroke-width:7.364160e-02;stroke-miterlimit:10;}
	.st22{clip-path:url(#SVGID_10_);fill:none;stroke:#674A1A;stroke-width:0.1498;stroke-miterlimit:10;}
	.st23{clip-path:url(#SVGID_10_);fill:none;stroke:#674A1A;stroke-width:0.132;stroke-miterlimit:10;}
	.st24{clip-path:url(#SVGID_10_);fill:none;stroke:#674A1A;stroke-width:9.608615e-02;stroke-miterlimit:10;}
	.st25{clip-path:url(#SVGID_10_);fill:none;stroke:#674A1A;stroke-width:0.125;stroke-miterlimit:10;}
	.st26{clip-path:url(#SVGID_10_);fill:none;stroke:#674A1A;stroke-width:9.696634e-02;stroke-miterlimit:10;}
	.st27{clip-path:url(#SVGID_10_);fill:#FFFFFF;}
	.st28{clip-path:url(#SVGID_10_);fill:#E34E98;stroke:#88633F;stroke-width:0.2934;stroke-miterlimit:10;}
	.st29{clip-path:url(#SVGID_10_);fill:#B4DBAA;}
	.st30{clip-path:url(#SVGID_10_);fill:none;stroke:#7B9878;stroke-width:7.980286e-02;stroke-miterlimit:10;}
	.st31{clip-path:url(#SVGID_10_);fill:#A6B3DB;}
	.st32{clip-path:url(#SVGID_10_);fill:none;stroke:#68B5CF;stroke-width:7.980286e-02;stroke-miterlimit:10;}
	.st33{clip-path:url(#SVGID_10_);fill:#F3F3B0;}
	.st34{clip-path:url(#SVGID_10_);fill:none;stroke:#DCCC33;stroke-width:7.980286e-02;stroke-miterlimit:10;}
	.st35{clip-path:url(#SVGID_10_);fill:#F1636C;}
	.st36{clip-path:url(#SVGID_10_);fill:none;stroke:#F04B5B;stroke-width:7.980286e-02;stroke-miterlimit:10;}
	.st37{clip-path:url(#SVGID_10_);fill:none;stroke:#D3D3D3;stroke-width:7.980286e-02;stroke-miterlimit:10;}
</style>
<rect x="0.5" y="18.2" class="st0" width="554" height="81.8"/>
<text transform="matrix(1 0 0 1 0.5 76.499)"><tspan x="0" y="0" class="st1 st2 st3 st4">D’</tspan><tspan x="85.9" y="0" class="st1 st2 st3 st5">OH</tspan><tspan x="225" y="0" class="st1 st2 st3 st6">MENTS</tspan></text>
<g>
	<g>
		<defs>
			<rect id="SVGID_1_" x="66.4" y="1" width="95.2" height="95.2"/>
		</defs>
		<clipPath id="SVGID_2_">
			<use xlink:href="#SVGID_1_"  style="overflow:visible;"/>
		</clipPath>
		<g class="st7">
			<defs>
				<rect id="SVGID_3_" x="66.4" y="1" width="95.2" height="95.2"/>
			</defs>
			<clipPath id="SVGID_4_">
				<use xlink:href="#SVGID_3_"  style="overflow:visible;"/>
			</clipPath>
			<g class="st8">
				<defs>
					<rect id="SVGID_5_" x="67.7" y="2.5" width="92.4" height="92.4"/>
				</defs>
				<clipPath id="SVGID_6_">
					<use xlink:href="#SVGID_5_"  style="overflow:visible;"/>
				</clipPath>
				<g class="st9">
					<defs>
						<rect id="SVGID_7_" x="67.7" y="2.5" width="92.4" height="92.4"/>
					</defs>
					<clipPath id="SVGID_8_">
						<use xlink:href="#SVGID_7_"  style="overflow:visible;"/>
					</clipPath>
				</g>
			</g>
		</g>
		<g class="st7">
			<defs>
				<rect id="SVGID_9_" x="66.4" y="1" width="95.2" height="95.2"/>
			</defs>
			<clipPath id="SVGID_10_">
				<use xlink:href="#SVGID_9_"  style="overflow:visible;"/>
			</clipPath>
			<path class="st10" d="M92.4,19.4c0,0,2.4-2.6,4.9-3.4c0.6-0.2,1.1-0.4,1.6-0.7c1.5-1,2.9-1.3,3.7-1.4c0.6-0.1,1.2-0.3,1.7-0.5
				c1.1-0.4,2.8-1.1,4-1.1c1.7,0,4.2-1.2,8.9-1.1c0.9,0,1.9,0.1,2.8,0.4c0.9,0.3,2.5,0.6,4,0.8c1.4,0.2,2.8,0.7,4.1,1.5
				c1.6,1,2.3,1.3,2.7,1.4c0.5,0.1,1,0.2,1.4,0.5c1.2,0.6,3.1,1.9,3.7,3.6c0.9,2.6,3.4,3.7,3.4,3.7s2.3,1.2,4,5.7s5.6,5,7,16.7
				c0.7,2.4,0.4,4.2,0,5.2c-0.3,0.8-0.3,1.6,0,2.4c0.5,1.3,0.7,3.5-1.7,6.7c-0.5,0.6-0.8,1.3-0.9,2.1c-0.6,3.7-2,5.5-2.8,6.3
				c-0.4,0.4-0.8,0.9-1,1.4c-0.8,1.4-2.4,4.1-4.1,5.1c-2.1,1.3-5.1,5-8.3,6c-0.7,0.2-1.4,0.6-2,1c-1.9,1.4-4.2,2-4.2,2
				s-3,2.3-6.1,1.7c-0.8-0.2-1.5-0.2-2.3-0.2c-0.8,0-1.6,0.1-2.2,0.1c-1.7,0.1-3.5-0.1-5.1-0.7c-1.3-0.4-2.9-0.8-3.9-0.8
				c-2.1,0.1-6,0.1-8.8-2.3c-1.6-1.5-2.9-2-3.7-2.2c-0.9-0.2-1.8-0.6-2.6-1.2c-1.2-0.8-2.8-2.2-3.7-3.7c-0.5-1-1.2-1.9-2-2.7
				c-0.7-0.8-1.6-2-4.2-7.5c-3.1-6.7-3.6-11-3.6-12.9c0-0.8-0.1-1.5-0.1-2.3c-0.1-1-0.2-2.4,0.2-3.5c0.6-1.9,1.6-2.8,2.3-9.2
				s2.6-9.8,4.4-10.9C85.8,24.5,90.1,22.2,92.4,19.4"/>
			<path class="st11" d="M92.4,19.4c0,0,2.4-2.6,4.9-3.4c0.6-0.2,1.1-0.4,1.6-0.7c1.5-1,2.9-1.3,3.7-1.4c0.6-0.1,1.2-0.3,1.7-0.5
				c1.1-0.4,2.8-1.1,4-1.1c1.7,0,4.2-1.2,8.9-1.1c0.9,0,1.9,0.1,2.8,0.4c0.9,0.3,2.5,0.6,4,0.8c1.4,0.2,2.8,0.7,4.1,1.5
				c1.6,1,2.3,1.3,2.7,1.4c0.5,0.1,1,0.2,1.4,0.5c1.2,0.6,3.1,1.9,3.7,3.6c0.9,2.6,3.4,3.7,3.4,3.7s2.3,1.2,4,5.7s5.6,5,7,16.7
				c0.7,2.4,0.4,4.2,0,5.2c-0.3,0.8-0.3,1.6,0,2.4c0.5,1.3,0.7,3.5-1.7,6.7c-0.5,0.6-0.8,1.3-0.9,2.1c-0.6,3.7-2,5.5-2.8,6.3
				c-0.4,0.4-0.8,0.9-1,1.4c-0.8,1.4-2.4,4.1-4.1,5.1c-2.1,1.3-5.1,5-8.3,6c-0.7,0.2-1.4,0.6-2,1c-1.9,1.4-4.2,2-4.2,2
				s-3,2.3-6.1,1.7c-0.8-0.2-1.5-0.2-2.3-0.2c-0.8,0-1.6,0.1-2.2,0.1c-1.7,0.1-3.5-0.1-5.1-0.7c-1.3-0.4-2.9-0.8-3.9-0.8
				c-2.1,0.1-6,0.1-8.8-2.3c-1.6-1.5-2.9-2-3.7-2.2c-0.9-0.2-1.8-0.6-2.6-1.2c-1.2-0.8-2.8-2.2-3.7-3.7c-0.5-1-1.2-1.9-2-2.7
				c-0.7-0.8-1.6-2-4.2-7.5c-3.1-6.7-3.6-11-3.6-12.9c0-0.8-0.1-1.5-0.1-2.3c-0.1-1-0.2-2.4,0.2-3.5c0.6-1.9,1.6-2.8,2.3-9.2
				s2.6-9.8,4.4-10.9C85.8,24.5,90.1,22.2,92.4,19.4z"/>
			<path class="st12" d="M98.3,18c2.9-3.4,7.6-4.8,11.9-3.4c0.6,0.2,1.2,0.5,1.8,0.8c2.3,1.3,4.6,1.1,6.2,0.6
				c4.2-1.3,8.7-0.6,12.1,2.1c0.4,0.3,0.7,0.6,1.1,0.9c3.1,2.3,6,4.5,6.2,4.7c0.1,0.1,4.4,1,6,9.4l0.8,1.4c0.8,1.3,1.7,2.5,2.8,3.6
				c0.5,0.5,0.8,1.8,0.3,5c0,0.3-0.1,0.6-0.1,0.8c-0.1,1-1.5,3,0.2,6.3c0.1,0.2,0.5,0.9,0.7,1c0.7,0.7,1.9,1.8,2.3,4.4
				c0.3,1.7-1,3.4-2.4,4.6c-2.1,1.9-3.9,4-5.4,6.3c-0.4,0.6-1,1.2-1.1,1.4c-0.4,0.7-0.7,4-1.9,4.3c-1,0.2-0.2,0.6-3.1,2.3
				c-1,0.6-2,1.3-2.8,2.2c-0.8,0.8-2.1,1.7-4.5,1.5c-2.2-0.2-3.1,1.3-3.5,2.8c-0.7,2.6-3.1,4.4-5.8,4.3c-1.4-0.1-2.9-0.5-4.3-1.7
				c-4.1-3.2-10.6-1.5-12.5-0.9c-0.3,0.1-0.5,0.2-0.8,0.3c-0.8,0.4-4,1.2-8.1-6.7c-1-1.7-3.6-3.9-5.7-5.5c-2.2-1.7-3.7-1.6-4.2-4.4
				c-0.1-0.8-2.4-3.7-3.1-4.2c-1.5-1.2-2.6-1.2-1.6-4.9c0.3-1.1-2.3-6.7-0.6-10.6c1.5-3.4,1.2-6.6,0.8-8.6c-0.5-2.2-0.4-4.6,0.3-6.7
				c1-3.2,3.1-6.9,8-7.3c1.1-0.1,2.3-0.4,3.3-0.9C94.7,21.7,96.8,19.7,98.3,18"/>
			<path class="st13" d="M98.3,18c2.9-3.4,7.6-4.8,11.9-3.4c0.6,0.2,1.2,0.5,1.8,0.8c2.3,1.3,4.6,1.1,6.2,0.6
				c4.2-1.3,8.7-0.6,12.1,2.1c0.4,0.3,0.7,0.6,1.1,0.9c3.1,2.3,6,4.5,6.2,4.7c0.1,0.1,4.4,1,6,9.4l0.8,1.4c0.8,1.3,1.7,2.5,2.8,3.6
				c0.5,0.5,0.8,1.8,0.3,5c0,0.3-0.1,0.6-0.1,0.8c-0.1,1-1.5,3,0.2,6.3c0.1,0.2,0.5,0.9,0.7,1c0.7,0.7,1.9,1.8,2.3,4.4
				c0.3,1.7-1,3.4-2.4,4.6c-2.1,1.9-3.9,4-5.4,6.3c-0.4,0.6-1,1.2-1.1,1.4c-0.4,0.7-0.7,4-1.9,4.3c-1,0.2-0.2,0.6-3.1,2.3
				c-1,0.6-2,1.3-2.8,2.2c-0.8,0.8-2.1,1.7-4.5,1.5c-2.2-0.2-3.1,1.3-3.5,2.8c-0.7,2.6-3.1,4.4-5.8,4.3c-1.4-0.1-2.9-0.5-4.3-1.7
				c-4.1-3.2-10.6-1.5-12.5-0.9c-0.3,0.1-0.5,0.2-0.8,0.3c-0.8,0.4-4,1.2-8.1-6.7c-1-1.7-3.6-3.9-5.7-5.5c-2.2-1.7-3.7-1.6-4.2-4.4
				c-0.1-0.8-2.4-3.7-3.1-4.2c-1.5-1.2-2.6-1.2-1.6-4.9c0.3-1.1-2.3-6.7-0.6-10.6c1.5-3.4,1.2-6.6,0.8-8.6c-0.5-2.2-0.4-4.6,0.3-6.7
				c1-3.2,3.1-6.9,8-7.3c1.1-0.1,2.3-0.4,3.3-0.9C94.7,21.7,96.8,19.7,98.3,18z"/>
			<path class="st10" d="M119.3,34.4c0,0,6.2,3.3,7,7.1c0.3,1.7,1.1,3.3,2,4.7l0,0c0.4,0.6,0.6,1.2,0.5,1.9c0,1-0.3,2.3-1.3,3
				c-1,0.7-1,2.4-0.8,3.5c0.2,1.4-0.1,2.7-0.9,3.8c-0.6,0.8-1.4,1.5-2.5,1.9c-2.2,0.7-5.2,4.4-13,1.8c-4.4-1.5-4.4-0.9-6.8-4.6
				c-0.4-0.7-1-1.3-1.6-1.8c-1.8-1.4-2.6-3.8-2-6.1c0,0,0-0.1,0-0.1c0.2-0.8,0.3-1.7,0.3-2.4c-0.1-2.9,0.7-5.7,2.4-8
				c1.6-2.1,3.7-3.9,5.9-3.7C113.5,36.1,116.7,32.5,119.3,34.4"/>
			<path class="st11" d="M119.3,34.4c0,0,6.2,3.3,7,7.1c0.3,1.7,1.1,3.3,2,4.7l0,0c0.4,0.6,0.6,1.2,0.5,1.9c0,1-0.3,2.3-1.3,3
				c-1,0.7-1,2.4-0.8,3.5c0.2,1.4-0.1,2.7-0.9,3.8c-0.6,0.8-1.4,1.5-2.5,1.9c-2.2,0.7-5.2,4.4-13,1.8c-4.4-1.5-4.4-0.9-6.8-4.6
				c-0.4-0.7-1-1.3-1.6-1.8c-1.8-1.4-2.6-3.8-2-6.1c0,0,0-0.1,0-0.1c0.2-0.8,0.3-1.7,0.3-2.4c-0.1-2.9,0.7-5.7,2.4-8
				c1.6-2.1,3.7-3.9,5.9-3.7C113.5,36.1,116.7,32.5,119.3,34.4z"/>
			<path class="st14" d="M117,35c0,0,3.2,0,3.5,1"/>
			<path class="st14" d="M117,12.6c0,0,3.2,0,3.5,1"/>
			<path class="st15" d="M105.5,38.5c3-2.3,5.1-1.8,5.1-1.8"/>
			<path class="st16" d="M118.5,61c-2.6,0.4-3.7-0.7-3.7-0.7"/>
			<path class="st17" d="M105.5,41.6c1.7-4,4.2-4.7,4.2-4.7"/>
			<path class="st17" d="M124.1,45.8c3.3,2.9,3.1,5.4,3.1,5.4"/>
			<path class="st18" d="M127.8,79.2c-0.9,3.1-2.5,4.6-2.5,4.6"/>
			<path class="st18" d="M110.3,82.9c-2.9,1.3-5.1,1-5.1,1"/>
			<path class="st18" d="M117.5,85.3c-3.1-0.7-4.7-2.1-4.7-2.1"/>
			<path class="st18" d="M97.1,81.8c-2.4-2.1-3.1-4.1-3.1-4.1"/>
			<path class="st18" d="M108.9,12.3c3,1,4.5,2.5,4.5,2.5"/>
			<path class="st19" d="M84.5,25.2c3.2-2.5,5.9-2.8,5.9-2.8"/>
			<path class="st17" d="M147.7,49.5c3.3,2.9,3.1,5.4,3.1,5.4"/>
			<path class="st17" d="M146.9,63.9c-2.1,3.8-4.6,4.3-4.6,4.3"/>
			<path class="st17" d="M133.6,16.5c3.3,2.9,3.1,5.4,3.1,5.4"/>
			<path class="st17" d="M140.5,24.7c3.3,2.9,3.1,5.4,3.1,5.4"/>
			<path class="st14" d="M115.9,59.3c0,0,2.9,1.4,2.8,2.3"/>
			<path class="st14" d="M104.4,55.1c0,0-3.2-0.6-3.3-1.5"/>
			<path class="st20" d="M101.9,48.7c0,0-1.5-1.7-1.1-2.2"/>
			<path class="st20" d="M105,40.1c0,0-1.5,1.6-2.1,1.3"/>
			<path class="st20" d="M123.3,40.7c0,0,2,1,1.8,1.7"/>
			<path class="st20" d="M147.6,47.6c0,0,2,1,1.8,1.7"/>
			<path class="st20" d="M146.9,36.5c0,0,2,1,1.8,1.7"/>
			<path class="st20" d="M126.2,14.2c0,0,2,1,1.8,1.7"/>
			<path class="st20" d="M125.1,54.7c0,0,0.3,2.2-0.3,2.5"/>
			<path class="st20" d="M136.4,76.8c0,0-1.9,1.1-2.4,0.7"/>
			<path class="st20" d="M140.2,73.2c0,0-1.2,1.9-1.8,1.7"/>
			<path class="st20" d="M86.2,70.7c0,0-2-0.9-1.9-1.6"/>
			<path class="st20" d="M101.9,14.7c0,0,1.9-1.2,2.4-0.8"/>
			<path class="st20" d="M95.9,18.3c0,0,1.5-1.6,2.1-1.3"/>
			<path class="st21" d="M80.1,41.5c0,0-1.3-0.9-1.1-1.4"/>
			<path class="st22" d="M81.7,63.4c0,0,1.8,2.6,1.2,3.4"/>
			<path class="st22" d="M105.8,12.9c0,0,3.2-0.3,3.6,0.6"/>
			<path class="st20" d="M142.1,69.1c0,0,0.3,2.2-0.3,2.5"/>
			<path class="st20" d="M149.9,45.2c0,0,0.3,2.2-0.3,2.5"/>
			<path class="st20" d="M146.1,33c0,0,0.3,2.2-0.3,2.5"/>
			<path class="st20" d="M108.7,59.9c0,0-2.2-0.5-2.2-1.1"/>
			<path class="st23" d="M111.5,36.9c0,0,0.4-0.9,1.5-1c1.2-0.1,1.9-0.6,1.9-0.6"/>
			<path class="st23" d="M112.1,12.8c0,0,0.7-0.6,1.8-0.2c1.1,0.5,2,0.3,2,0.3"/>
			<path class="st24" d="M115.2,36.3c0,0,0.6-0.3,1.3,0.2c0.7,0.5,1.4,0.5,1.4,0.5"/>
			<path class="st24" d="M118.1,14.8c0,0-0.5,0.5-1.3,0.3c-0.8-0.2-1.5,0-1.5,0"/>
			<path class="st24" d="M103,40.6c0,0-0.1-0.7,0.7-1.1c0.7-0.4,1.1-1,1.1-1"/>
			<path class="st23" d="M121.3,60.3c0,0-0.1-1,0.9-1.5c1-0.6,1.4-1.4,1.4-1.4"/>
			<path class="st23" d="M128.5,82c0,0-0.1-1,0.9-1.5c1-0.6,1.4-1.4,1.4-1.4"/>
			<path class="st23" d="M77.6,47c0,0-0.1-1,0.9-1.5c1-0.6,1.4-1.4,1.4-1.4"/>
			<path class="st23" d="M92.1,22.2c0,0-0.1-1,0.9-1.5c1-0.6,1.4-1.4,1.4-1.4"/>
			<path class="st23" d="M90.3,75.9c0,0,0.8-0.5,1.8,0.2c1,0.7,1.9,0.7,1.9,0.7"/>
			<path class="st23" d="M78,54.1c0,0,0.9,0.4,0.9,1.6c0,1.2,0.5,2,0.5,2"/>
			<path class="st23" d="M86.9,72.1c0,0,1-0.1,1.6,0.8c0.6,1,1.5,1.3,1.5,1.3"/>
			<path class="st25" d="M147.7,45.4c0,0-0.1-0.9,0.9-1.5c1-0.6,1.4-1.4,1.4-1.4"/>
			<path class="st23" d="M110.4,60.7c0,0,0.9-0.4,1.8,0.4c0.9,0.8,1.8,0.9,1.8,0.9"/>
			<path class="st23" d="M125.6,43.7c0,0,0.9,0.4,1,1.5c0.1,1.2,0.6,1.9,0.6,1.9"/>
			<path class="st23" d="M130.3,15.9c0,0,0.9,0.4,1,1.5c0.1,1.2,0.6,1.9,0.6,1.9"/>
			<path class="st23" d="M99.8,49.5c0,0,1,0,1.5,1.1c0.5,1.1,1.3,1.6,1.3,1.6"/>
			<path class="st26" d="M103.3,57.1c0,0,0.6-0.4,1.3,0s1.4,0.4,1.4,0.4"/>
			<path class="st26" d="M102,46.4c0,0-0.4-0.6,0-1.3c0.4-0.7,0.4-1.4,0.4-1.4"/>
			<path class="st26" d="M120.5,39.1c0,0,0.6-0.4,1.3,0c0.7,0.4,1.4,0.4,1.4,0.4"/>
			<path class="st26" d="M118.7,37.5c0,0,0.6-0.4,1.3,0c0.7,0.4,1.4,0.4,1.4,0.4"/>
			<path class="st26" d="M122.1,13.4c0,0,0.6-0.4,1.3,0c0.7,0.4,1.4,0.4,1.4,0.4"/>
			<path class="st16" d="M104.4,43.3c-2.6,0.4-3.7-0.7-3.7-0.7"/>
			<path class="st14" d="M101.7,41.6c0,0,2.9,1.4,2.8,2.3"/>
			<path class="st27" d="M108.3,38.8c0,0,5.1-2.2,9.8,0c4.7,2.2,6.6,5.7,6.6,7.3c0,1.6,1.3,5.7-3.2,10.6c-4.5,4.8-13.2,1.5-13.2,1.5
				s-0.7-0.6-1.7-1.2c-2.2-1.3-3.6-3.6-3.8-6.2c0-0.4,0-0.7,0-0.7s0-6.3,1.7-8c0.5-0.5,0.9-0.9,1.3-1.4
				C107.1,39.3,108.3,38.8,108.3,38.8"/>
			<path class="st28" d="M108.3,38.8c0,0,5.1-2.2,9.8,0c4.7,2.2,6.6,5.7,6.6,7.3c0,1.6,1.3,5.7-3.2,10.6c-4.5,4.8-13.2,1.5-13.2,1.5
				s-0.7-0.6-1.7-1.2c-2.2-1.3-3.6-3.6-3.8-6.2c0-0.4,0-0.7,0-0.7s0-6.3,1.7-8c0.5-0.5,0.9-0.9,1.3-1.4
				C107.1,39.3,108.3,38.8,108.3,38.8z"/>
			<path class="st29" d="M93.8,32.7L93.8,32.7c0.3,0,0.6-1,0.7-1.9c0.1-0.9,0.3-1.7,0.6-2.6l0.2-0.7c0.3-0.6-0.2-1.1-0.7-1.2
				c-0.5-0.1-1,0.3-1.1,0.8L93,31.7C92.9,32.2,93.3,32.7,93.8,32.7"/>
			<path class="st30" d="M93.8,32.7L93.8,32.7c0.3,0,0.6-1,0.7-1.9c0.1-0.9,0.3-1.7,0.6-2.6l0.2-0.7c0.3-0.6-0.2-1.1-0.7-1.2
				c-0.5-0.1-1,0.3-1.1,0.8L93,31.7C92.9,32.2,93.3,32.7,93.8,32.7z"/>
			<path class="st31" d="M91.2,45.5L91.2,45.5c0.2,0.3,1.2-0.1,2-0.6c0.8-0.4,1.6-0.8,2.4-1l0.7-0.2c0.7-0.2,0.8-0.8,0.6-1.2
				c-0.2-0.5-0.8-0.6-1.3-0.4l-3.9,2.1C91.2,44.5,91,45,91.2,45.5"/>
			<path class="st32" d="M91.2,45.5L91.2,45.5c0.2,0.3,1.2-0.1,2-0.6c0.8-0.4,1.6-0.8,2.4-1l0.7-0.2c0.7-0.2,0.8-0.8,0.6-1.2
				c-0.2-0.5-0.8-0.6-1.3-0.4l-3.9,2.1C91.2,44.5,91,45,91.2,45.5z"/>
			<path class="st33" d="M89,38.5L89,38.5c-0.1,0.3,1,0.7,1.8,0.9c0.9,0.2,1.7,0.5,2.5,0.9l0.6,0.3c0.6,0.3,1.1,0,1.3-0.5
				s-0.2-1-0.7-1.2l-4.3-1.1C89.7,37.7,89.2,38,89,38.5"/>
			<path class="st34" d="M89,38.5L89,38.5c-0.1,0.3,1,0.7,1.8,0.9c0.9,0.2,1.7,0.5,2.5,0.9l0.6,0.3c0.6,0.3,1.1,0,1.3-0.5
				s-0.2-1-0.7-1.2l-4.3-1.1C89.7,37.7,89.2,38,89,38.5z"/>
			<path class="st35" d="M102.3,25.5L102.3,25.5c0.3,0.2,0.9-0.7,1.4-1.5c0.4-0.8,0.9-1.5,1.5-2.1l0.5-0.5c0.5-0.5,0.3-1.1-0.2-1.3
				c-0.5-0.3-1-0.1-1.3,0.3l-2.2,3.9C101.7,24.6,101.8,25.2,102.3,25.5"/>
			<path class="st36" d="M102.3,25.5L102.3,25.5c0.3,0.2,0.9-0.7,1.4-1.5c0.4-0.8,0.9-1.5,1.5-2.1l0.5-0.5c0.5-0.5,0.3-1.1-0.2-1.3
				c-0.5-0.3-1-0.1-1.3,0.3l-2.2,3.9C101.7,24.6,101.8,25.2,102.3,25.5z"/>
			<path class="st27" d="M110.7,24.4L110.7,24.4c-0.3,0-0.6,1-0.7,1.9c-0.1,0.9-0.3,1.7-0.6,2.6l-0.2,0.7c-0.2,0.6,0.2,1.1,0.7,1.2
				c0.5,0.1,1-0.3,1.1-0.8l0.5-4.4C111.5,24.9,111.2,24.4,110.7,24.4"/>
			<path class="st37" d="M110.7,24.4L110.7,24.4c-0.3,0-0.6,1-0.7,1.9c-0.1,0.9-0.3,1.7-0.6,2.6l-0.2,0.7c-0.2,0.6,0.2,1.1,0.7,1.2
				c0.5,0.1,1-0.3,1.1-0.8l0.5-4.4C111.5,24.9,111.2,24.4,110.7,24.4z"/>
			<path class="st27" d="M101.3,69.1L101.3,69.1c-0.3,0.1,0,1.2,0.3,2c0.3,0.8,0.5,1.7,0.6,2.6l0.1,0.7c0.1,0.7,0.7,0.9,1.2,0.7
				c0.5-0.2,0.8-0.7,0.6-1.2l-1.5-4.2C102.3,69.2,101.8,69,101.3,69.1"/>
			<path class="st37" d="M101.3,69.1L101.3,69.1c-0.3,0.1,0,1.2,0.3,2c0.3,0.8,0.5,1.7,0.6,2.6l0.1,0.7c0.1,0.7,0.7,0.9,1.2,0.7
				c0.5-0.2,0.8-0.7,0.6-1.2l-1.5-4.2C102.3,69.2,101.8,69,101.3,69.1z"/>
			<path class="st35" d="M94,34.6L94,34.6c-0.1,0.3,0.9,0.7,1.8,1c0.8,0.2,1.7,0.6,2.4,1l0.6,0.3c0.6,0.4,1.1,0,1.3-0.5v0
				c0.2-0.5-0.1-1-0.6-1.2l-4.3-1.3C94.7,33.8,94.2,34.1,94,34.6"/>
			<path class="st36" d="M94.1,34.6L94.1,34.6c-0.1,0.3,0.9,0.7,1.8,1c0.8,0.2,1.7,0.6,2.4,1l0.6,0.3c0.6,0.4,1.1,0,1.3-0.5v0
				c0.2-0.5-0.1-1-0.6-1.2l-4.3-1.3C94.8,33.8,94.3,34.1,94.1,34.6z"/>
			<path class="st29" d="M127.5,70.7L127.5,70.7c-0.3,0.2,0.4,1.1,1,1.8c0.6,0.7,1.1,1.4,1.5,2.2l0.3,0.6c0.3,0.6,0.9,0.6,1.3,0.3
				c0.4-0.3,0.5-0.9,0.1-1.3l-2.8-3.4C128.5,70.4,127.9,70.4,127.5,70.7"/>
			<path class="st30" d="M127.5,70.7L127.5,70.7c-0.3,0.2,0.4,1.1,1,1.8c0.6,0.7,1.1,1.4,1.5,2.2l0.3,0.6c0.3,0.6,0.9,0.6,1.3,0.3
				c0.4-0.3,0.5-0.9,0.1-1.3l-2.8-3.4C128.5,70.4,127.9,70.4,127.5,70.7z"/>
			<path class="st27" d="M126.8,28L126.8,28c-0.2-0.3-1.2,0.2-1.9,0.6c-0.8,0.4-1.6,0.8-2.4,1.1l-0.7,0.2c-0.7,0.2-0.8,0.8-0.5,1.3
				c0.3,0.5,0.8,0.6,1.3,0.4l3.9-2.2C126.9,29,127.1,28.4,126.8,28"/>
			<path class="st37" d="M126.8,28L126.8,28c-0.2-0.3-1.2,0.2-1.9,0.6c-0.8,0.4-1.6,0.8-2.4,1.1l-0.7,0.2c-0.7,0.2-0.8,0.8-0.5,1.3
				c0.3,0.5,0.8,0.6,1.3,0.4l3.9-2.2C126.9,29,127.1,28.4,126.8,28z"/>
			<path class="st33" d="M103.9,60.6L103.9,60.6c-0.2-0.2-1.1,0.5-1.7,1.1c-0.6,0.6-1.3,1.2-2.1,1.7l-0.6,0.4
				c-0.6,0.3-0.5,1-0.2,1.3c0.4,0.4,1,0.4,1.3,0l3.2-3.1C104.2,61.6,104.3,61,103.9,60.6"/>
			<path class="st34" d="M103.9,60.6L103.9,60.6c-0.2-0.2-1.1,0.5-1.7,1.1c-0.6,0.6-1.3,1.2-2.1,1.7l-0.6,0.4
				c-0.6,0.3-0.5,1-0.2,1.3c0.4,0.4,1,0.4,1.3,0l3.2-3.1C104.2,61.6,104.3,61,103.9,60.6z"/>
			<path class="st27" d="M97.7,58L97.7,58c0.2-0.3-0.7-1-1.4-1.4c-0.7-0.5-1.4-1-2-1.7l-0.5-0.5c-0.5-0.5-1.1-0.3-1.4,0.1
				c-0.3,0.4-0.2,1,0.3,1.3l3.7,2.4C96.9,58.6,97.4,58.4,97.7,58"/>
			<path class="st37" d="M97.7,58L97.7,58c0.2-0.3-0.7-1-1.4-1.4c-0.7-0.5-1.4-1-2-1.7l-0.5-0.5c-0.5-0.5-1.1-0.3-1.4,0.1
				c-0.3,0.4-0.2,1,0.3,1.3l3.7,2.4C96.9,58.6,97.4,58.4,97.7,58z"/>
			<path class="st27" d="M135,29.1L135,29.1c-0.3-0.2-0.9,0.8-1.3,1.6c-0.4,0.8-0.9,1.5-1.5,2.2l-0.5,0.5c-0.5,0.5-0.2,1.1,0.2,1.3
				c0.5,0.3,1,0.1,1.3-0.4l2.1-3.9C135.6,29.9,135.4,29.4,135,29.1"/>
			<path class="st37" d="M135,29.1L135,29.1c-0.3-0.2-0.9,0.8-1.3,1.6c-0.4,0.8-0.9,1.5-1.5,2.2l-0.5,0.5c-0.5,0.5-0.2,1.1,0.2,1.3
				c0.5,0.3,1,0.1,1.3-0.4l2.1-3.9C135.6,29.9,135.4,29.4,135,29.1z"/>
			<path class="st35" d="M125.9,34.8L125.9,34.8c-0.2,0.3,0.7,1,1.5,1.4c0.8,0.5,1.4,1,2.1,1.6l0.5,0.5c0.5,0.5,1.1,0.3,1.4-0.1
				c0.3-0.4,0.2-1-0.3-1.3l-3.8-2.4C126.8,34.2,126.2,34.3,125.9,34.8"/>
			<path class="st36" d="M125.9,34.8L125.9,34.8c-0.2,0.3,0.7,1,1.5,1.4c0.8,0.5,1.4,1,2.1,1.6l0.5,0.5c0.5,0.5,1.1,0.3,1.4-0.1
				c0.3-0.4,0.2-1-0.3-1.3l-3.8-2.4C126.8,34.2,126.2,34.3,125.9,34.8z"/>
			<path class="st27" d="M119.3,65.7L119.3,65.7c-0.2,0.3,0.7,1,1.5,1.4c0.8,0.5,1.4,1,2.1,1.6l0.5,0.5c0.5,0.5,1.1,0.3,1.4-0.1
				c0.3-0.4,0.2-1-0.3-1.3l-3.8-2.4C120.2,65.2,119.6,65.3,119.3,65.7"/>
			<path class="st37" d="M119.3,65.7L119.3,65.7c-0.2,0.3,0.7,1,1.5,1.4c0.8,0.5,1.4,1,2.1,1.6l0.5,0.5c0.5,0.5,1.1,0.3,1.4-0.1
				c0.3-0.4,0.2-1-0.3-1.3l-3.8-2.4C120.2,65.2,119.6,65.3,119.3,65.7z"/>
			<path class="st31" d="M134.1,40.9L134.1,40.9c-0.3,0.1-0.1,1.2,0.2,2c0.3,0.8,0.5,1.7,0.6,2.6l0.1,0.7c0,0.7,0.6,0.9,1.1,0.8
				c0.5-0.2,0.8-0.7,0.6-1.2l-1.4-4.2C135.1,41.1,134.6,40.8,134.1,40.9"/>
			<path class="st32" d="M134.1,40.9L134.1,40.9c-0.3,0.1-0.1,1.2,0.2,2c0.3,0.8,0.5,1.7,0.6,2.6l0.1,0.7c0,0.7,0.6,0.9,1.1,0.8
				c0.5-0.2,0.8-0.7,0.6-1.2l-1.4-4.2C135.1,41.1,134.6,40.8,134.1,40.9z"/>
			<path class="st35" d="M130.7,58.5L130.7,58.5c-0.3-0.1-0.8,0.9-1,1.8c-0.3,0.8-0.6,1.6-1.1,2.4l-0.4,0.6
				c-0.4,0.6-0.1,1.1,0.4,1.3c0.5,0.2,1-0.1,1.2-0.6l1.5-4.2C131.4,59.3,131.2,58.7,130.7,58.5"/>
			<path class="st36" d="M130.7,58.5L130.7,58.5c-0.3-0.1-0.8,0.9-1,1.8c-0.3,0.8-0.6,1.6-1.1,2.4l-0.4,0.6
				c-0.4,0.6-0.1,1.1,0.4,1.3c0.5,0.2,1-0.1,1.2-0.6l1.5-4.2C131.4,59.3,131.2,58.7,130.7,58.5z"/>
			<path class="st35" d="M98.1,48L98.1,48c-0.1-0.3-1.2-0.1-2,0.2c-0.8,0.3-1.7,0.4-2.6,0.5l-0.7,0.1c-0.7,0-0.9,0.6-0.8,1.1
				c0.2,0.5,0.7,0.8,1.2,0.6l4.3-1.3C97.9,49,98.2,48.5,98.1,48"/>
			<path class="st36" d="M98.1,48L98.1,48c-0.1-0.3-1.2-0.1-2,0.2c-0.8,0.3-1.7,0.4-2.6,0.5l-0.7,0.1c-0.7,0-0.9,0.6-0.8,1.1
				c0.2,0.5,0.7,0.8,1.2,0.6l4.3-1.3C97.9,49,98.2,48.5,98.1,48z"/>
			<path class="st35" d="M143.8,40L143.8,40c-0.3-0.2-1,0.6-1.6,1.3c-0.5,0.7-1.2,1.3-1.9,1.9l-0.5,0.4c-0.6,0.4-0.4,1,0,1.4
				c0.4,0.3,1,0.3,1.3-0.1l2.8-3.5C144.3,40.9,144.2,40.3,143.8,40"/>
			<path class="st36" d="M143.8,40L143.8,40c-0.3-0.2-1,0.6-1.6,1.3c-0.5,0.7-1.2,1.3-1.9,1.9l-0.5,0.4c-0.6,0.4-0.4,1,0,1.4
				c0.4,0.3,1,0.3,1.3-0.1l2.8-3.5C144.3,40.9,144.2,40.3,143.8,40z"/>
			<path class="st31" d="M118.1,74.2L118.1,74.2c-0.3,0.1,0.1,1.2,0.4,2c0.4,0.8,0.7,1.6,0.8,2.5l0.1,0.7c0.1,0.7,0.7,0.9,1.2,0.6
				c0.5-0.2,0.7-0.8,0.5-1.3l-1.8-4.1C119.1,74.2,118.5,74,118.1,74.2"/>
			<path class="st32" d="M118.1,74.2L118.1,74.2c-0.3,0.1,0.1,1.2,0.4,2c0.4,0.8,0.7,1.6,0.8,2.5l0.1,0.7c0.1,0.7,0.7,0.9,1.2,0.6
				c0.5-0.2,0.7-0.8,0.5-1.3l-1.8-4.1C119.1,74.2,118.5,74,118.1,74.2z"/>
			<path class="st33" d="M138.1,60.3L138.1,60.3c-0.3-0.1-0.8,0.9-1.1,1.7c-0.3,0.8-0.7,1.6-1.2,2.3l-0.4,0.6
				c-0.4,0.6-0.1,1.1,0.4,1.3c0.5,0.2,1-0.1,1.2-0.5l1.6-4.2C138.9,61.1,138.6,60.5,138.1,60.3"/>
			<path class="st34" d="M138.1,60.3L138.1,60.3c-0.3-0.1-0.8,0.9-1.1,1.7c-0.3,0.8-0.7,1.6-1.2,2.3l-0.4,0.6
				c-0.4,0.6-0.1,1.1,0.4,1.3c0.5,0.2,1-0.1,1.2-0.5l1.6-4.2C138.9,61.1,138.6,60.5,138.1,60.3z"/>
			<path class="st29" d="M140.7,48.4L140.7,48.4c-0.3-0.2-0.9,0.8-1.3,1.6c-0.4,0.8-0.9,1.5-1.4,2.2l-0.4,0.5
				c-0.4,0.5-0.2,1.1,0.3,1.3c0.5,0.2,1,0,1.3-0.4l2-4C141.4,49.2,141.2,48.6,140.7,48.4"/>
			<path class="st30" d="M140.7,48.4L140.7,48.4c-0.3-0.2-0.9,0.8-1.3,1.6c-0.4,0.8-0.9,1.5-1.4,2.2l-0.4,0.5
				c-0.4,0.5-0.2,1.1,0.3,1.3c0.5,0.2,1,0,1.3-0.4l2-4C141.4,49.2,141.2,48.6,140.7,48.4z"/>
			<path class="st27" d="M134,51.1L134,51.1c-0.1-0.3-1.2,0.1-2,0.5c-0.8,0.4-1.6,0.7-2.5,0.9l-0.7,0.1c-0.7,0.1-0.8,0.7-0.6,1.2
				c0.2,0.5,0.8,0.7,1.3,0.5l4.1-1.9C134,52.1,134.2,51.6,134,51.1"/>
			<path class="st37" d="M134,51.1L134,51.1c-0.1-0.3-1.2,0.1-2,0.5c-0.8,0.4-1.6,0.7-2.5,0.9l-0.7,0.1c-0.7,0.1-0.8,0.7-0.6,1.2
				c0.2,0.5,0.8,0.7,1.3,0.5l4.1-1.9C134,52.1,134.2,51.6,134,51.1z"/>
			<path class="st29" d="M138.7,33.5L138.7,33.5c-0.3-0.2-1,0.6-1.6,1.3c-0.5,0.7-1.2,1.3-1.9,1.9l-0.5,0.4c-0.6,0.4-0.4,1,0,1.4
				c0.4,0.3,1,0.3,1.3-0.1l2.8-3.5C139.2,34.5,139.1,33.9,138.7,33.5"/>
			<path class="st30" d="M138.7,33.5L138.7,33.5c-0.3-0.2-1,0.6-1.6,1.3c-0.5,0.7-1.2,1.3-1.9,1.9l-0.5,0.4c-0.6,0.4-0.4,1,0,1.4
				c0.4,0.3,1,0.3,1.3-0.1l2.8-3.5C139.2,34.5,139.1,33.9,138.7,33.5z"/>
			<path class="st29" d="M115.8,67.7L115.8,67.7c-0.3-0.2-1,0.6-1.6,1.3c-0.5,0.7-1.2,1.3-1.9,1.9l-0.5,0.4c-0.6,0.4-0.4,1,0,1.4
				c0.4,0.3,1,0.3,1.3-0.1l2.8-3.5C116.3,68.7,116.2,68.1,115.8,67.7"/>
			<path class="st30" d="M115.8,67.7L115.8,67.7c-0.3-0.2-1,0.6-1.6,1.3c-0.5,0.7-1.2,1.3-1.9,1.9l-0.5,0.4c-0.6,0.4-0.4,1,0,1.4
				c0.4,0.3,1,0.3,1.3-0.1l2.8-3.5C116.3,68.7,116.2,68.1,115.8,67.7z"/>
			<path class="st33" d="M127.3,20.8L127.3,20.8c-0.3,0.1,0,1.2,0.3,2c0.3,0.8,0.6,1.7,0.7,2.5l0.1,0.7c0.1,0.7,0.7,0.9,1.2,0.7
				c0.5-0.2,0.7-0.7,0.5-1.2l-1.6-4.2C128.3,20.8,127.8,20.6,127.3,20.8"/>
			<path class="st34" d="M127.3,20.8L127.3,20.8c-0.3,0.1,0,1.2,0.3,2c0.3,0.8,0.6,1.7,0.7,2.5l0.1,0.7c0.1,0.7,0.7,0.9,1.2,0.7
				c0.5-0.2,0.7-0.7,0.5-1.2l-1.6-4.2C128.3,20.8,127.8,20.6,127.3,20.8z"/>
			<path class="st31" d="M94.7,62.4L94.7,62.4c-0.3-0.2-0.9,0.8-1.3,1.5c-0.4,0.8-0.9,1.5-1.5,2.2l-0.5,0.5
				c-0.5,0.5-0.3,1.1,0.2,1.3c0.5,0.3,1,0.1,1.3-0.4l2.2-3.9C95.3,63.3,95.1,62.7,94.7,62.4"/>
			<path class="st32" d="M94.7,62.4L94.7,62.4c-0.3-0.2-0.9,0.8-1.3,1.5c-0.4,0.8-0.9,1.5-1.5,2.2l-0.5,0.5
				c-0.5,0.5-0.3,1.1,0.2,1.3c0.5,0.3,1,0.1,1.3-0.4l2.2-3.9C95.3,63.3,95.1,62.7,94.7,62.4z"/>
			<path class="st33" d="M102.8,28L102.8,28c-0.3,0.2,0.2,1.2,0.6,1.9c0.5,0.8,0.8,1.6,1.1,2.4l0.2,0.7c0.2,0.7,0.8,0.8,1.3,0.5
				c0.5-0.3,0.6-0.8,0.4-1.3l-2.2-3.9C103.9,27.9,103.3,27.8,102.8,28"/>
			<path class="st34" d="M102.8,28L102.8,28c-0.3,0.2,0.2,1.2,0.6,1.9c0.5,0.8,0.8,1.6,1.1,2.4l0.2,0.7c0.2,0.7,0.8,0.8,1.3,0.5
				c0.5-0.3,0.6-0.8,0.4-1.3l-2.2-3.9C103.9,27.9,103.3,27.8,102.8,28z"/>
			<path class="st31" d="M121.4,19.2L121.4,19.2c-0.3,0.2,0.2,1.2,0.6,1.9c0.5,0.8,0.8,1.6,1.1,2.4l0.2,0.7c0.2,0.7,0.8,0.8,1.3,0.5
				c0.5-0.3,0.6-0.8,0.4-1.3l-2.2-3.9C122.5,19.1,121.9,18.9,121.4,19.2"/>
			<path class="st32" d="M121.4,19.2L121.4,19.2c-0.3,0.2,0.2,1.2,0.6,1.9c0.5,0.8,0.8,1.6,1.1,2.4l0.2,0.7c0.2,0.7,0.8,0.8,1.3,0.5
				c0.5-0.3,0.6-0.8,0.4-1.3l-2.2-3.9C122.5,19.1,121.9,18.9,121.4,19.2z"/>
			<path class="st35" d="M107.3,63.8L107.3,63.8c-0.3,0.1,0,1.2,0.4,2c0.4,0.8,0.6,1.7,0.8,2.5l0.1,0.7c0.1,0.7,0.7,0.9,1.2,0.7
				c0.5-0.2,0.7-0.8,0.5-1.3l-1.8-4.1C108.3,63.8,107.7,63.6,107.3,63.8"/>
			<path class="st36" d="M107.3,63.8L107.3,63.8c-0.3,0.1,0,1.2,0.4,2c0.4,0.8,0.6,1.7,0.8,2.5l0.1,0.7c0.1,0.7,0.7,0.9,1.2,0.7
				c0.5-0.2,0.7-0.8,0.5-1.3l-1.8-4.1C108.3,63.8,107.7,63.6,107.3,63.8z"/>
			<path class="st29" d="M116.9,20.5L116.9,20.5c-0.3,0-0.5,1.1-0.6,1.9c-0.1,0.9-0.3,1.7-0.5,2.6l-0.2,0.7
				c-0.2,0.6,0.2,1.1,0.7,1.2c0.5,0.1,1-0.3,1-0.8l0.5-4.4C117.8,21.1,117.4,20.6,116.9,20.5"/>
			<path class="st30" d="M116.9,20.5L116.9,20.5c-0.3,0-0.5,1.1-0.6,1.9c-0.1,0.9-0.3,1.7-0.5,2.6l-0.2,0.7
				c-0.2,0.6,0.2,1.1,0.7,1.2c0.5,0.1,1-0.3,1-0.8l0.5-4.4C117.8,21.1,117.4,20.6,116.9,20.5z"/>
			<path class="st29" d="M84.5,55.6L84.5,55.6c-0.3,0.2,0.2,1.2,0.6,1.9c0.4,0.8,0.8,1.6,1,2.4l0.2,0.7c0.2,0.7,0.8,0.8,1.2,0.5h0
				c0.5-0.3,0.6-0.8,0.4-1.3l-2.2-3.9C85.6,55.5,85,55.3,84.5,55.6"/>
			<path class="st30" d="M84.5,55.6L84.5,55.6c-0.3,0.2,0.2,1.2,0.6,1.9c0.4,0.8,0.8,1.6,1,2.4l0.2,0.7c0.2,0.7,0.8,0.8,1.2,0.5h0
				c0.5-0.3,0.6-0.8,0.4-1.3l-2.2-3.9C85.6,55.5,85,55.3,84.5,55.6z"/>
			<path class="st33" d="M86.7,41.8L86.7,41.8c-0.3,0-0.4,1.1-0.4,2c0,0.9,0,1.8-0.2,2.6L86,47.1c-0.2,0.7,0.3,1.1,0.9,1.1
				c0.5,0,0.9-0.4,0.9-1l-0.1-4.5C87.7,42.2,87.2,41.8,86.7,41.8"/>
			<path class="st34" d="M86.7,41.8L86.7,41.8c-0.3,0-0.4,1.1-0.4,2c0,0.9,0,1.8-0.2,2.6L86,47.1c-0.2,0.7,0.3,1.1,0.9,1.1
				c0.5,0,0.9-0.4,0.9-1l-0.1-4.5C87.7,42.2,87.2,41.8,86.7,41.8z"/>
			<path class="st27" d="M83.1,31.8L83.1,31.8c-0.1,0.3,0.9,0.8,1.7,1c0.8,0.3,1.6,0.7,2.4,1.1l0.6,0.4c0.6,0.4,1.1,0.1,1.3-0.4
				c0.2-0.5-0.1-1-0.6-1.2l-4.2-1.5C83.8,31,83.3,31.3,83.1,31.8"/>
			<path class="st37" d="M83.1,31.8L83.1,31.8c-0.1,0.3,0.9,0.8,1.7,1c0.8,0.3,1.6,0.7,2.4,1.1l0.6,0.4c0.6,0.4,1.1,0.1,1.3-0.4
				c0.2-0.5-0.1-1-0.6-1.2l-4.2-1.5C83.8,31,83.3,31.3,83.1,31.8z"/>
		</g>
	</g>
</g>
</svg>
